<!DOCTYPE svg PUBLIC "-//W3C//DTD SVG 20010904//EN" "http://www.w3.org/TR/2001/REC-SVG-20010904/DTD/svg10.dtd">
<svg version="1.0" xmlns="http://www.w3.org/2000/svg" width="256px" height="256px" viewBox="0 0 2560 2560" preserveAspectRatio="xMidYMid meet">
<g id="layer101" fill="#0455b1" stroke="none">
<path d="M1066 2465 c-702 -133 -1134 -828 -940 -1514 32 -115 121 -292 194 -389 178 -236 444 -402 737 -458 104 -20 327 -23 422 -5 503 96 872 454 978 951 24 115 24 344 0 457 -55 259 -172 471 -354 644 -157 150 -319 238 -542 296 -124 32 -372 41 -495 18z m244 -527 c-34 -166 -70 -339 -81 -383 -10 -44 -19 -92 -19 -107 0 -16 -4 -28 -9 -28 -5 0 -84 45 -177 100 -93 55 -173 101 -178 103 -12 4 83 213 137 299 68 109 150 203 225 259 64 47 153 85 160 69 2 -5 -25 -145 -58 -312z m-445 185 c-64 -86 -195 -332 -195 -366 0 -22 -12 -22 -52 3 -42 26 -84 26 -98 1 -20 -39 -12 -60 36 -91 26 -16 51 -31 57 -33 11 -3 -9 -93 -22 -101 -3 -2 -61 8 -129 22 -87 18 -122 30 -122 40 0 24 75 176 119 240 54 80 141 173 213 229 53 40 231 142 250 143 4 0 -22 -39 -57 -87z m819 -63 c79 -150 112 -342 103 -598 -4 -91 -9 -167 -12 -170 -4 -4 -367 65 -371 71 -2 3 166 811 172 827 8 21 64 -47 108 -130z m426 -238 c96 -147 148 -309 157 -494 3 -64 3 -123 0 -131 -4 -12 -26 -10 -139 14 -73 16 -138 31 -145 33 -8 4 -8 16 0 48 6 24 11 133 11 243 1 202 -10 294 -50 429 -8 27 -14 54 -14 60 1 19 130 -126 180 -202z m-1265 -319 c44 -21 46 -37 3 -28 -42 9 -48 13 -48 31 0 18 2 18 45 -3z m-420 -148 c65 -14 121 -28 123 -30 2 -2 -1 -43 -7 -92 -23 -184 -8 -438 34 -597 8 -32 14 -61 11 -63 -6 -6 -104 114 -144 176 -84 131 -135 282 -150 446 -9 91 -5 185 7 185 3 0 60 -12 126 -25z m588 -122 c71 -14 131 -32 134 -39 5 -13 -161 -821 -170 -830 -22 -22 -122 105 -163 206 -58 143 -69 216 -69 460 0 124 3 232 7 241 6 15 12 16 70 3 35 -8 121 -26 191 -41z m612 -127 c86 -20 100 -26 97 -42 -3 -19 -33 -116 -37 -122 -3 -4 -169 167 -173 179 -5 12 -3 12 113 -15z m-136 -123 c78 -85 130 -133 143 -133 11 0 18 -3 16 -7 -31 -68 -102 -194 -141 -251 -66 -96 -199 -221 -266 -249 -28 -12 -51 -18 -51 -13 0 9 89 451 126 625 14 66 27 130 30 143 3 13 8 22 12 20 4 -2 63 -63 131 -135z m573 31 c68 -14 131 -27 141 -30 22 -7 18 -21 -29 -122 -95 -205 -281 -389 -487 -482 -115 -51 -115 -51 -37 52 89 117 195 326 246 487 22 66 40 121 41 121 2 0 58 -11 125 -26z"/>
</g>
<g id="layer102" fill="#636262" stroke="none">
<path d="M1066 2465 c-702 -133 -1134 -828 -940 -1514 32 -115 121 -292 194 -389 178 -236 444 -402 737 -458 104 -20 327 -23 422 -5 503 96 872 454 978 951 24 115 24 344 0 457 -55 259 -172 471 -354 644 -157 150 -319 238 -542 296 -124 32 -372 41 -495 18z m244 -527 c-34 -166 -70 -339 -81 -383 -26 -111 -25 -139 6 -153 14 -7 31 -23 37 -37 10 -22 8 -30 -9 -53 -22 -30 -55 -40 -75 -22 -41 35 -303 179 -338 185 -30 5 -44 13 -50 29 -5 13 -44 44 -93 73 l-85 50 -12 -44 c-7 -24 -16 -45 -19 -47 -3 -2 -61 8 -129 22 -87 18 -122 30 -122 40 0 24 75 176 119 240 54 80 141 173 213 229 53 40 231 142 250 143 4 0 -22 -39 -57 -87 -66 -89 -195 -332 -195 -368 0 -14 23 -34 79 -68 44 -26 83 -47 88 -47 4 0 27 44 51 98 81 188 202 355 320 443 64 47 153 85 160 69 2 -5 -25 -145 -58 -312z m374 122 c79 -150 112 -342 103 -598 -4 -91 -9 -167 -12 -170 -4 -4 -367 65 -371 71 -2 3 166 811 172 827 8 21 64 -47 108 -130z m426 -238 c96 -147 148 -309 157 -494 3 -64 3 -123 0 -131 -4 -12 -26 -10 -139 14 -73 16 -138 31 -145 33 -8 4 -8 16 0 48 6 24 11 133 11 243 1 202 -10 294 -50 429 -8 27 -14 54 -14 60 1 19 130 -126 180 -202z m-1685 -467 c65 -14 121 -28 123 -30 2 -2 -1 -43 -7 -92 -23 -184 -8 -438 34 -597 8 -32 14 -61 11 -63 -6 -6 -104 114 -144 176 -84 131 -135 282 -150 446 -9 91 -5 185 7 185 3 0 60 -12 126 -25z m588 -122 c71 -14 131 -32 134 -39 5 -13 -161 -821 -170 -830 -22 -22 -122 105 -163 206 -58 143 -69 216 -69 460 0 124 3 232 7 241 6 15 12 16 70 3 35 -8 121 -26 191 -41z m612 -127 c86 -20 100 -26 97 -42 -3 -19 -33 -116 -37 -122 -3 -4 -169 167 -173 179 -5 12 -3 12 113 -15z m-136 -123 c78 -85 130 -133 143 -133 11 0 18 -3 16 -7 -31 -68 -102 -194 -141 -251 -66 -96 -199 -221 -266 -249 -28 -12 -51 -18 -51 -13 0 9 89 451 126 625 14 66 27 130 30 143 3 13 8 22 12 20 4 -2 63 -63 131 -135z m573 31 c68 -14 131 -27 141 -30 22 -7 18 -21 -29 -122 -95 -205 -281 -389 -487 -482 -115 -51 -115 -51 -37 52 89 117 195 326 246 487 22 66 40 121 41 121 2 0 58 -11 125 -26z"/>
</g>
<g id="layer103" fill="#e11e5a" stroke="none">
<path d="M1066 2465 c-702 -133 -1134 -828 -940 -1514 32 -115 121 -292 194 -389 178 -236 444 -402 737 -458 104 -20 327 -23 422 -5 503 96 872 454 978 951 24 115 24 344 0 457 -55 259 -172 471 -354 644 -157 150 -319 238 -542 296 -124 32 -372 41 -495 18z m244 -527 c-34 -166 -70 -339 -81 -383 -26 -111 -25 -139 6 -153 14 -7 31 -23 37 -37 10 -22 8 -30 -9 -53 -22 -30 -55 -40 -75 -22 -40 34 -306 180 -340 185 -28 5 -42 13 -48 29 -5 13 -44 44 -93 73 l-85 50 -12 -44 c-7 -24 -16 -45 -19 -47 -3 -2 -61 8 -129 22 -87 18 -122 30 -122 40 0 24 75 176 119 240 54 80 141 173 213 229 53 40 231 142 250 143 4 0 -22 -39 -57 -87 -67 -90 -195 -332 -195 -369 0 -14 22 -33 81 -67 44 -26 83 -47 87 -47 4 0 26 44 50 98 81 188 202 355 320 443 64 47 153 85 160 69 2 -5 -25 -145 -58 -312z m374 122 c79 -150 112 -342 103 -598 -4 -91 -9 -167 -12 -170 -4 -4 -367 65 -371 71 -2 3 166 811 172 827 8 21 64 -47 108 -130z m426 -238 c96 -147 148 -309 157 -494 3 -64 3 -123 0 -131 -4 -12 -26 -10 -139 14 -73 16 -138 31 -145 33 -8 4 -8 16 0 48 6 24 11 133 11 243 1 202 -10 294 -50 429 -8 27 -14 54 -14 60 1 19 130 -126 180 -202z m-1685 -467 c65 -14 121 -28 123 -30 2 -2 -1 -43 -7 -92 -23 -184 -8 -438 34 -597 8 -32 14 -61 11 -63 -6 -6 -104 114 -144 176 -84 131 -135 282 -150 446 -9 91 -5 185 7 185 3 0 60 -12 126 -25z m588 -122 c71 -14 131 -32 134 -39 5 -13 -161 -821 -170 -830 -22 -22 -122 105 -163 206 -58 143 -69 216 -69 460 0 124 3 232 7 241 6 15 12 16 70 3 35 -8 121 -26 191 -41z m422 -27 l71 -74 104 -22 c58 -13 108 -26 112 -29 3 -3 -2 -33 -13 -66 -11 -36 -16 -74 -13 -95 5 -30 1 -39 -25 -63 -17 -15 -49 -64 -72 -109 -23 -46 -64 -116 -92 -156 -66 -96 -199 -221 -266 -249 -28 -12 -51 -18 -51 -15 0 7 98 491 140 694 l20 97 -35 46 c-19 26 -35 51 -35 56 0 17 48 59 67 59 10 0 50 -33 88 -74z m627 -192 c68 -14 131 -27 141 -30 22 -7 18 -21 -29 -122 -95 -205 -281 -389 -487 -482 -115 -51 -115 -51 -37 52 89 117 195 326 246 487 22 66 40 121 41 121 2 0 58 -11 125 -26z"/>
</g>
<g id="layer104" fill="#2db67d" stroke="none">
<path d="M1280 2357 l0 -125 45 14 c34 10 45 10 45 1 0 -7 -20 -111 -45 -232 l-45 -220 0 -257 0 -258 -232 -1 c-259 0 -260 -2 -20 -50 63 -12 116 -28 119 -35 5 -12 -161 -821 -170 -830 -22 -22 -122 105 -163 206 -59 145 -69 215 -69 473 l0 237 -97 0 c-58 0 -99 -4 -103 -11 -4 -6 -10 -84 -12 -173 -6 -176 5 -307 38 -440 10 -44 17 -81 15 -83 -6 -6 -105 115 -144 176 -79 124 -136 284 -147 420 -11 121 -1 111 -115 111 l-100 0 0 -44 c0 -206 101 -490 240 -674 178 -236 444 -402 737 -458 104 -20 327 -23 422 -5 503 96 872 454 978 951 24 115 24 344 0 457 -78 365 -289 653 -607 830 -130 72 -322 129 -476 139 l-94 7 0 -126z m404 -297 c79 -150 112 -342 103 -598 -4 -91 -9 -167 -12 -170 -4 -4 -367 65 -371 71 -2 3 166 811 172 827 8 21 64 -47 108 -130z m426 -238 c96 -147 148 -309 157 -494 3 -64 3 -123 0 -131 -4 -12 -26 -10 -139 14 -73 16 -138 31 -145 33 -8 4 -8 16 0 48 6 24 11 133 11 243 1 202 -10 294 -50 429 -8 27 -14 54 -14 60 1 19 130 -126 180 -202z m-675 -616 l71 -74 104 -22 c58 -13 108 -26 112 -29 3 -3 -2 -33 -13 -66 -11 -36 -16 -74 -13 -95 5 -30 1 -39 -25 -63 -17 -15 -49 -64 -72 -109 -23 -46 -64 -116 -92 -156 -66 -96 -199 -221 -266 -249 -28 -12 -51 -18 -51 -15 0 7 98 491 140 694 l20 97 -35 46 c-19 26 -35 51 -35 56 0 17 48 59 67 59 10 0 50 -33 88 -74z m627 -192 c68 -14 131 -27 141 -30 22 -7 18 -21 -29 -122 -95 -205 -281 -389 -487 -482 -115 -51 -115 -51 -37 52 89 117 195 326 246 487 22 66 40 121 41 121 2 0 58 -11 125 -26z"/>
</g>
<g id="layer105" fill="#abb669" stroke="none">
<path d="M1280 2357 l0 -125 45 14 c34 10 45 10 45 1 0 -7 -20 -111 -45 -232 l-45 -220 0 -257 0 -258 -232 -1 c-259 0 -260 -2 -20 -50 63 -12 116 -28 119 -35 5 -12 -161 -821 -170 -830 -22 -22 -122 105 -163 206 -59 145 -69 215 -69 473 l0 237 -97 0 c-58 0 -99 -4 -103 -11 -4 -6 -10 -84 -12 -173 -6 -176 5 -307 38 -440 10 -44 17 -81 15 -83 -6 -6 -105 115 -144 176 -79 124 -136 284 -147 420 -11 121 -1 111 -115 111 l-100 0 0 -44 c0 -275 153 -615 368 -818 211 -199 449 -304 755 -333 52 -5 68 -4 72 7 3 8 4 71 3 141 l-3 126 -42 -19 c-24 -10 -43 -15 -43 -10 0 5 19 96 42 202 l42 193 5 275 6 275 347 3 347 2 8 38 c4 20 8 123 8 227 -1 191 -12 285 -52 423 -8 30 -13 56 -10 58 8 9 128 -130 178 -205 87 -133 143 -299 156 -458 l6 -83 105 0 105 0 -7 83 c-50 600 -517 1072 -1102 1113 l-94 7 0 -126z m404 -297 c79 -150 112 -342 103 -598 -4 -91 -9 -167 -12 -170 -4 -4 -367 65 -371 71 -2 3 166 811 172 827 8 21 64 -47 108 -130z"/>
</g>
<g id="layer106" fill="#ecb22e" stroke="none">
<path d="M1280 2357 l0 -125 45 14 c34 10 45 10 45 1 0 -7 -20 -111 -45 -232 l-45 -220 0 -252 0 -253 228 1 227 1 -165 35 c-91 19 -166 36 -166 36 -2 3 166 811 172 827 8 21 64 -47 108 -130 80 -151 112 -342 103 -602 l-7 -168 100 0 100 0 7 28 c4 15 8 115 8 222 0 197 -11 288 -52 428 -8 30 -13 56 -10 58 8 9 128 -130 178 -205 85 -131 142 -295 155 -452 l7 -79 105 0 105 0 -7 78 c-54 599 -519 1067 -1102 1108 l-94 7 0 -126z"/>
</g>
<g id="layer107" fill="#36c5f0" stroke="none">
<path d="M80 1236 c0 -275 153 -615 368 -818 211 -199 449 -304 755 -333 52 -5 68 -4 72 7 3 8 4 71 3 141 l-3 126 -42 -19 c-24 -10 -43 -15 -43 -10 0 5 19 96 42 202 l42 193 5 278 6 277 -235 -1 c-262 0 -262 -2 -22 -50 63 -12 116 -28 119 -35 5 -12 -161 -821 -170 -830 -22 -22 -122 105 -163 206 -59 145 -69 215 -69 473 l0 237 -97 0 c-58 0 -99 -4 -103 -11 -4 -6 -10 -84 -12 -173 -6 -176 5 -307 38 -440 10 -44 17 -81 15 -83 -6 -6 -105 115 -144 176 -79 124 -136 284 -147 420 -11 121 -1 111 -115 111 l-100 0 0 -44z"/>
</g>


</svg>